<svg width="576" height="122" viewBox="0 0 576 122" fill="none" xmlns="http://www.w3.org/2000/svg">
<path opacity="0.1" d="M549.249 65.732C545.139 64.9939 542.203 64.2558 539.854 63.5177C491.115 53.9224 442.964 54.6606 393.051 51.7082C387.766 51.7082 383.069 50.9701 377.784 50.9701C364.865 50.232 351.947 49.4939 339.028 49.4939C348.423 48.0177 357.232 46.5415 366.627 45.0653C377.784 42.851 388.941 40.6367 399.511 37.6843C407.732 35.4701 417.714 32.5177 424.761 28.0891C442.377 16.2796 366.627 5.20811 360.755 5.20811C296.162 -0.696656 230.981 -1.43471 166.388 2.25577C119.412 5.20816 65.9755 7.4224 20.7604 19.97C-1.55359 25.8748 -6.83849 37.6844 9.60338 50.9701C25.458 63.5177 48.3592 67.2082 70.086 70.1606C81.243 71.6368 92.9872 73.113 104.731 73.8511C102.383 74.5891 100.621 76.0653 100.621 78.2796C100.621 80.4939 104.144 81.9701 105.906 82.7082C109.429 84.1844 114.127 84.9225 118.824 85.6606C145.836 90.8272 172.848 92.3034 200.447 92.3034C198.098 93.7796 196.336 94.5177 193.987 95.9939C189.877 98.9463 186.354 102.637 186.354 107.065C185.766 109.28 186.941 110.756 188.115 111.494C192.226 116.661 200.447 118.137 207.493 119.613C218.65 121.827 230.981 121.827 242.726 121.827C304.383 122.565 366.04 121.089 426.522 114.446C450.598 111.494 474.673 108.542 498.162 104.851C515.191 101.899 532.22 97.4701 549.249 93.7796C561.581 90.8272 582.72 84.9225 573.912 75.3272C569.801 70.8986 558.057 67.9463 549.249 65.732Z" fill="white"/>
</svg>
