<svg width="670" height="142" viewBox="0 0 670 142" fill="none" xmlns="http://www.w3.org/2000/svg">
<path opacity="0.1" d="M638.883 76.5077C634.102 75.6486 630.687 74.7895 627.955 73.9304C571.263 62.7622 515.253 63.6213 457.195 60.1849C451.048 60.1849 445.583 59.3258 439.436 59.3258C424.409 58.4667 409.382 57.6076 394.356 57.6076C405.284 55.8894 415.53 54.1712 426.458 52.453C439.436 49.8758 452.414 47.2985 464.708 43.8621C474.271 41.2848 485.883 37.8485 494.079 32.6939C514.57 18.9484 426.458 6.0619 419.628 6.0619C344.494 -0.810862 268.676 -1.6699 193.542 2.62557C138.899 6.06195 76.7424 8.63919 24.1484 23.2438C-1.80713 30.1166 -7.95449 43.8621 11.1706 59.3258C29.6127 73.9305 56.2512 78.2259 81.5236 81.6623C94.5014 83.3805 108.162 85.0987 121.823 85.9578C119.091 86.8169 117.042 88.535 117.042 91.1123C117.042 93.6896 121.14 95.4078 123.189 96.2669C127.287 97.9851 132.752 98.8442 138.216 99.7033C169.636 105.717 201.055 107.435 233.158 107.435C230.426 109.153 228.377 110.012 225.645 111.731C220.864 115.167 216.765 119.462 216.765 124.617C216.082 127.194 217.448 128.913 218.814 129.772C223.596 135.785 233.158 137.503 241.355 139.222C254.333 141.799 268.676 141.799 282.337 141.799C354.056 142.658 425.775 140.94 496.128 133.208C524.133 129.772 552.138 126.335 579.459 122.04C599.267 118.603 619.075 113.449 638.883 109.153C653.227 105.717 677.817 98.8442 667.571 87.6759C662.79 82.5214 649.129 79.085 638.883 76.5077Z" fill="white"/>
</svg>
